<?xml version="1.0" encoding="iso-8859-1"?>
<!-- Generator: Adobe Illustrator 19.0.0, SVG Export Plug-In . SVG Version: 6.00 Build 0)  -->
<svg version="1.1" id="Capa_1" xmlns="http://www.w3.org/2000/svg" xmlns:xlink="http://www.w3.org/1999/xlink" x="0px" y="0px"
	 viewBox="0 0 512 512" style="enable-background:new 0 0 512 512;" xml:space="preserve">
<g>
	<g>
		<path d="M402,356c-5.52,0-10,4.48-10,10c0,5.52,4.48,10,10,10c5.52,0,10-4.48,10-10C412,360.48,407.52,356,402,356z"/>
	</g>
</g>
<g>
	<g>
		<path d="M110,356c-5.52,0-10,4.48-10,10c0,5.52,4.48,10,10,10s10-4.48,10-10C120,360.48,115.52,356,110,356z"/>
	</g>
</g>
<g>
	<g>
		<path d="M472,297.006V246c0-115.887-99.928-210-216-210C141.219,36,40,128.893,40,246v51.006C17.205,301.652,0,321.854,0,346v40
			c0,24.661,17.95,45.195,41.468,49.257C45.379,447.281,56.688,456,70,456h31.72c4.128,11.639,15.243,20,28.28,20
			c16.542,0,30-13.458,30-30V286c0-16.542-13.458-30-30-30c-13.036,0-24.152,8.361-28.28,20H100v-30
			c0-37.12,13.459-72.206,38.065-99.729c10.134,5.287,22.799,4.435,32.257-2.919C191.672,126.736,225.303,116,256,116
			s64.328,10.736,85.683,27.354c9.406,7.313,22.063,8.239,32.257,2.921C398.542,173.797,412,208.882,412,246v30h-1.72
			c-4.128-11.639-15.243-20-28.28-20c-16.542,0-30,13.458-30,30v160c0,16.542,13.458,30,30,30c13.036,0,24.152-8.361,28.28-20H442
			c13.312,0,24.621-8.719,28.532-20.743C494.05,431.195,512,410.661,512,386v-40C512,321.854,494.795,301.652,472,297.006z
			 M40,414.28c-11.639-4.128-20-15.243-20-28.28v-40c0-13.036,8.361-24.152,20-28.28V414.28z M110,336c5.522,0,10-4.478,10-10v-40
			c0-5.514,4.486-10,10-10c5.514,0,10,4.486,10,10v160c0,5.514-4.486,10-10,10c-5.514,0-10-4.486-10-10v-40c0-5.522-4.478-10-10-10
			c-5.522,0-10,4.478-10,10v30H70c-5.514,0-10-4.486-10-10V306c0-5.514,4.486-10,10-10h30v30C100,331.522,104.478,336,110,336z
			 M80,246v30H70c-3.506,0-6.87,0.61-10,1.72V246c0-46.405,17.74-90.674,50.159-125.698l12.828,12.828
			C95.2,164.296,80,203.997,80,246z M367.048,126.808c-3.563,3.564-9.069,3.883-13.087,0.76C328.94,108.096,291.404,96,256,96
			s-72.94,12.096-97.958,31.565c-4.022,3.127-9.527,2.807-13.091-0.757l-20.492-20.492C160.734,74.231,208.117,56,256,56
			c47.804,0,95.287,18.259,131.537,50.32L367.048,126.808z M452,426c0,5.514-4.486,10-10,10h-30v-30c0-5.522-4.478-10-10-10
			c-5.522,0-10,4.478-10,10v40c0,5.514-4.486,10-10,10c-5.514,0-10-4.486-10-10V286c0-5.514,4.486-10,10-10c5.514,0,10,4.486,10,10
			v40c0,5.522,4.478,10,10,10c5.522,0,10-4.478,10-10v-30h30c5.514,0,10,4.486,10,10V426z M452,277.72
			c-3.13-1.11-6.494-1.72-10-1.72h-10v-30c0-42.003-15.2-81.704-42.987-112.87l12.828-12.828C434.26,155.324,452,199.594,452,246
			V277.72z M492,386c0,13.036-8.361,24.152-20,28.28v-96.56c11.639,4.128,20,15.244,20,28.28V386z"/>
	</g>
</g>
<g>
</g>
<g>
</g>
<g>
</g>
<g>
</g>
<g>
</g>
<g>
</g>
<g>
</g>
<g>
</g>
<g>
</g>
<g>
</g>
<g>
</g>
<g>
</g>
<g>
</g>
<g>
</g>
<g>
</g>
</svg>
