<?xml version="1.0" encoding="UTF-8"?>
<svg xmlns="http://www.w3.org/2000/svg" id="Line_stroke_cut_Ex" data-name="Line stroke cut Ex" width="512" height="512" viewBox="0 0 512 512"><g><path d="M413.98,310.161l-12.888-7.44a161.445,161.445,0,0,0,0-93.441l12.887-7.441a18,18,0,0,0,6.589-24.589l-14-24.247a18,18,0,0,0-24.589-6.589l-11.469,6.621a161.621,161.621,0,0,0-20.242-20.091l-6.377-38.259A8,8,0,0,0,336,88V54a38.043,38.043,0,0,0-38-38H198a38.043,38.043,0,0,0-38,38V88a8,8,0,0,0-7.892,6.685l-6.377,38.26a161.275,161.275,0,0,0-21.783,22l12.4,10.112a145.2,145.2,0,0,1,21.777-21.573,8.005,8.005,0,0,0,2.9-4.931L166.777,104H192v7.734a8,8,0,0,0,10.524,7.591,144.827,144.827,0,0,1,90.952,0A8,8,0,0,0,304,111.734V104h25.223l5.758,34.552a8.005,8.005,0,0,0,2.895,4.931,144.015,144.015,0,0,1,0,225.033,8.005,8.005,0,0,0-2.895,4.931L329.223,408H304v-7.734a8,8,0,0,0-10.524-7.591,144.827,144.827,0,0,1-90.952,0A8,8,0,0,0,192,400.266V408H166.777l-5.758-34.553a8.005,8.005,0,0,0-2.9-4.931,144.054,144.054,0,0,1-31.393-190.2l-13.462-8.644a160.05,160.05,0,0,0,32.462,209.386l6.377,38.26A8,8,0,0,0,160,424v34a38.043,38.043,0,0,0,38,38H298a38.043,38.043,0,0,0,38-38V440H320v18a22.025,22.025,0,0,1-22,22H198a22.025,22.025,0,0,1-22-22V424h24a8,8,0,0,0,8-8v-5.042a161.188,161.188,0,0,0,80,0V416a8,8,0,0,0,8,8h40a8,8,0,0,0,7.892-6.685l6.377-38.26a161.614,161.614,0,0,0,20.242-20.09l11.469,6.621a17.892,17.892,0,0,0,8.972,2.42,18.084,18.084,0,0,0,4.688-.621A17.876,17.876,0,0,0,406.568,359l14-24.248a18,18,0,0,0-6.588-24.589ZM296,88a8,8,0,0,0-8,8v5.042a161.188,161.188,0,0,0-80,0V96a8,8,0,0,0-8-8H176V54a22.025,22.025,0,0,1,22-22H298a22.025,22.025,0,0,1,22,22V88Zm93.98,72.27a2,2,0,0,1,2.733.732l14,24.248a2,2,0,0,1-.733,2.732l-10.4,6.007a158.658,158.658,0,0,0-15.305-28.114Zm16.733,166.48-14,24.249a2,2,0,0,1-2.732.73l-9.707-5.6a158.674,158.674,0,0,0,15.3-28.113l10.4,6.007a2,2,0,0,1,.732,2.731Z"/><path d="M248,384A128,128,0,1,0,120,256,128.146,128.146,0,0,0,248,384Zm0-240A112,112,0,1,1,136,256,112.127,112.127,0,0,1,248,144Z"/><path d="M184,288h32v32a8,8,0,0,0,8,8h48a8,8,0,0,0,8-8V288h32a8,8,0,0,0,8-8V232a8,8,0,0,0-8-8H280V192a8,8,0,0,0-8-8H224a8,8,0,0,0-8,8v32H184a8,8,0,0,0-8,8v48A8,8,0,0,0,184,288Zm8-48h32a8,8,0,0,0,8-8V200h32v32a8,8,0,0,0,8,8h32v32H272a8,8,0,0,0-8,8v32H232V280a8,8,0,0,0-8-8H192Z"/></g></svg>
