<?xml version="1.0" encoding="iso-8859-1"?>
<!-- Generator: Adobe Illustrator 19.0.0, SVG Export Plug-In . SVG Version: 6.00 Build 0)  -->
<svg version="1.1" id="Capa_1" xmlns="http://www.w3.org/2000/svg" xmlns:xlink="http://www.w3.org/1999/xlink" x="0px" y="0px"
	 viewBox="0 0 512 512" style="enable-background:new 0 0 512 512;" xml:space="preserve">
<g>
	<g>
		<path d="M352,0H160c-29.397,0-53.333,23.936-53.333,53.333v405.333C106.667,488.064,130.603,512,160,512h192
			c29.397,0,53.333-23.936,53.333-53.333V53.333C405.333,23.936,381.397,0,352,0z M384,458.667c0,17.643-14.357,32-32,32H160
			c-17.643,0-32-14.357-32-32V53.333c0-17.643,14.357-32,32-32h192c17.643,0,32,14.357,32,32V458.667z"/>
	</g>
</g>
<g>
	<g>
		<path d="M394.667,85.333H117.333c-5.888,0-10.667,4.779-10.667,10.667s4.779,10.667,10.667,10.667h277.333
			c5.888,0,10.667-4.779,10.667-10.667S400.555,85.333,394.667,85.333z"/>
	</g>
</g>
<g>
	<g>
		<path d="M394.667,405.333H117.333c-5.888,0-10.667,4.779-10.667,10.667c0,5.888,4.779,10.667,10.667,10.667h277.333
			c5.888,0,10.667-4.779,10.667-10.667C405.333,410.112,400.555,405.333,394.667,405.333z"/>
	</g>
</g>
<g>
	<g>
		<path d="M266.667,42.667h-21.333c-5.888,0-10.667,4.779-10.667,10.667S239.445,64,245.333,64h21.333
			c5.888,0,10.667-4.779,10.667-10.667S272.555,42.667,266.667,42.667z"/>
	</g>
</g>
<g>
	<g>
		<path d="M331.093,42.667h-0.213c-5.888,0-10.56,4.779-10.56,10.667S325.205,64,331.093,64s10.667-4.779,10.667-10.667
			S336.981,42.667,331.093,42.667z"/>
	</g>
</g>
<g>
	<g>
		<path d="M202.667,448H160c-5.888,0-10.667,4.779-10.667,10.667s4.779,10.667,10.667,10.667h42.667
			c5.888,0,10.667-4.779,10.667-10.667S208.555,448,202.667,448z"/>
	</g>
</g>
<g>
	<g>
		<path d="M352,448h-42.667c-5.888,0-10.667,4.779-10.667,10.667s4.779,10.667,10.667,10.667H352
			c5.888,0,10.667-4.779,10.667-10.667S357.888,448,352,448z"/>
	</g>
</g>
<g>
</g>
<g>
</g>
<g>
</g>
<g>
</g>
<g>
</g>
<g>
</g>
<g>
</g>
<g>
</g>
<g>
</g>
<g>
</g>
<g>
</g>
<g>
</g>
<g>
</g>
<g>
</g>
<g>
</g>
</svg>
