<?xml version="1.0" encoding="utf-8"?>
<!-- Generator: Adobe Illustrator 24.1.1, SVG Export Plug-In . SVG Version: 6.00 Build 0)  -->
<svg version="1.1" id="Layer_1" xmlns="http://www.w3.org/2000/svg" xmlns:xlink="http://www.w3.org/1999/xlink" x="0px" y="0px"
	 viewBox="0 0 512 512" style="enable-background:new 0 0 512 512;" xml:space="preserve">
<g>
	<path d="M459.8,463.3c-46.7-71.1-104.4-93.4-175.3-99.1v40.9c0,15.2-5.9,29.5-16.7,40.2c-21.5,21.5-59.1,21.4-80.3,0.1L8.5,268.9
		C3,263.5,0,256.3,0,248.6s3-14.9,8.5-20.3L187.3,51.9c21.4-21.5,59-21.5,80.5,0c10.7,10.8,16.6,25,16.6,40.2v48.5
		C415.8,167.2,512,282.8,512,419.3v28.4c0,12.6-8.3,23.7-20.3,27.3c-2.7,0.8-5.4,1.2-8.1,1.2C474.1,476.2,465.2,471.5,459.8,463.3z
		 M256.7,305.9c62.8,1.6,131.9,11.2,192.2,60.3C427,274.7,350,204,252.8,193.3c-14.3-1.6-25.3-1.5-25.3-1.5V92.3L68.9,248.6
		l158.6,156.4v-99.5L256.7,305.9z"/>
</g>
</svg>
