<?xml version="1.0" encoding="utf-8"?>
<!-- Generator: Adobe Illustrator 24.1.1, SVG Export Plug-In . SVG Version: 6.00 Build 0)  -->
<svg version="1.1" id="Layer_1" xmlns="http://www.w3.org/2000/svg" xmlns:xlink="http://www.w3.org/1999/xlink" x="0px" y="0px"
	 viewBox="0 0 512 512" style="enable-background:new 0 0 512 512;" xml:space="preserve">
<g>
	<path d="M28.4,476.2c-2.7,0-5.4-0.4-8.1-1.2C8.3,471.4,0,460.3,0,447.7v-28.4c0-136.5,96.2-252.1,227.6-278.6V92.2
		c0-15.2,5.9-29.5,16.6-40.2c21.5-21.5,59-21.5,80.5,0l178.9,176.4c5.4,5.3,8.5,12.6,8.5,20.3s-3,14.9-8.5,20.3l-179,176.6
		c-21.2,21.2-58.8,21.4-80.3-0.1c-10.8-10.8-16.7-25-16.7-40.2v-40.9c-71,5.7-128.7,28-175.3,99.1C46.8,471.5,37.9,476.2,28.4,476.2
		z M256,305.8l28.4-0.3v99.5l158.6-156.4L284.4,92.3v99.5c0,0-10.9-0.1-25.3,1.5c-97.2,10.8-174.2,81.5-196,172.9
		C123.4,317,192.5,307.4,256,305.8z"/>
</g>
</svg>
